<svg version="1.1" preserveAspectRatio="none" xmlns="http://www.w3.org/2000/svg" width="500" height="500" viewBox="0 0 500 500"><rect width="100%" height="100%" fill="#FFFFFF" fill-opacity="1"/><svg viewBox="159.8958 301.919 501.6114 110" width="333" height="73.02465613819783" x="83.5px" y="213.4877px" xmlns="http://www.w3.org/2000/svg" xmlns:xlink="http://www.w3.org/1999/xlink" preserveAspectRatio="none"><defs></defs><style>.aD6z1nYkhcolor {fill:#42A5FF;fill-opacity:1;}.aIptOCySncolors-3 {fill:#3CB9EF;fill-opacity:1;}.aIptOCySncolors-4 {fill:#83EDFF;fill-opacity:1;}.aIptOCySncolors-5 {fill:#AEDDFF;fill-opacity:1;}.aIptOCySncolors-6 {fill:#FFF1FF;fill-opacity:1;}.aIptOCySncolors-7 {fill:#FFE4CE;fill-opacity:1;}.icon1 {fill:#42A5FF;fill-opacity:1;}.icon2 {fill:#6DDDD0;fill-opacity:1;}.icon3 {fill:#FFD4D4;fill-opacity:1;}.icon3-str {stroke:#FFD4D4;stroke-opacity:1;}</style><g opacity="1" transform="rotate(0 159.8958 301.919)">
<svg width="103.4536" height="110" x="159.8958" y="301.919" version="1.1" preserveAspectRatio="none" viewBox="48.948001861572266 45.71799850463867 102.10400390625 108.56500244140625">
  <g transform="matrix(1 0 0 1 0 0)"><g><path data-color="1" d="M116.988 122.729l-34.064 31.092V79.782c0-18.813 15.251-34.064 34.064-34.064v77.011z" class="icon1"></path><path data-color="2" d="M83.012 122.729l-34.064 31.092V79.782c0-18.813 15.251-34.064 34.064-34.064v77.011z" class="icon2"></path><path data-color="3" d="M151.052 122.729l-34.064 31.092V79.782c0-18.813 15.251-34.064 34.064-34.064v77.011z" class="icon3"></path><path data-color="2" d="M150.599 136.412v17.871h-17.871l17.871-17.871z" class="icon2"></path></g></g>
</svg>
</g><g opacity="1" transform="rotate(0 283.3494 316.919)">
<svg width="378.1578" height="80" x="283.3494" y="316.919" version="1.1" preserveAspectRatio="none" viewBox="3.0859 -28.2422 121.32820000000001 28.6328">
  <g transform="matrix(1 0 0 1 0 0)" class="aD6z1nYkhcolor"><path id="id-D6z1nYkh7" d="M3.09 0L3.09-26.52L7.52-26.52L7.52-15.25L17.87-15.25L17.87-26.52L22.29-26.52L22.29 0L17.87 0L17.87-11.86L7.52-11.86L7.52 0L3.09 0Z M26.88-9.79L26.88-9.79Q26.88-12.60 27.56-14.63Q28.24-16.66 29.47-17.97Q30.70-19.28 32.41-19.89Q34.12-20.51 36.17-20.51L36.17-20.51Q38.07-20.51 39.56-19.87Q41.05-19.24 42.09-18.09Q43.13-16.93 43.67-15.33Q44.22-13.73 44.22-11.80L44.22-11.80Q44.22-11.13 44.16-10.57Q44.10-10 44.02-9.59L44.02-9.59Q43.95-9.10 43.85-8.71L43.85-8.71L31.04-8.77Q31.05-7.03 31.41-5.89Q31.76-4.75 32.45-4.08Q33.14-3.42 34.20-3.15Q35.25-2.89 36.70-2.89L36.70-2.89Q37.93-2.89 38.91-3.05Q39.88-3.20 40.57-3.42L40.57-3.42Q41.35-3.65 41.97-3.96L41.97-3.96Q42.27-3.28 42.43-2.70Q42.60-2.11 42.68-1.68L42.68-1.68Q42.75-1.17 42.79-0.78L42.79-0.78Q42.15-0.45 41.23-0.20L41.23-0.20Q40.45 0.02 39.32 0.21Q38.18 0.39 36.70 0.39L36.70 0.39Q34.36 0.39 32.53-0.14Q30.70-0.66 29.44-1.87Q28.18-3.07 27.53-5.01Q26.88-6.95 26.88-9.79ZM31.09-11.62L40.04-11.62L40.04-12.29Q40.04-13.52 39.74-14.46Q39.43-15.41 38.91-16.05Q38.38-16.70 37.66-17.03Q36.93-17.36 36.09-17.36L36.09-17.36Q34.86-17.36 33.93-17.04Q32.99-16.72 32.35-16.03Q31.72-15.33 31.41-14.24Q31.09-13.14 31.09-11.62L31.09-11.62Z M48.16-3.36L48.16-28.11L52.21-28.11L52.21-3.28L53.36-2.46L53.36 0L52.25 0L52.21-0.04L52.21 0Q50.27 0 49.22-0.78Q48.16-1.56 48.16-3.36L48.16-3.36Z M58.14 0L58.14-16.39L56.60-17.97L56.60-20.18L60.20-20.18L61.88-18.65L62.44-18.77Q62.58-18.89 63.08-19.18Q63.57-19.47 64.31-19.77Q65.04-20.06 65.98-20.28Q66.91-20.51 67.95-20.51L67.95-20.51Q69.59-20.51 70.87-20.02Q72.15-19.53 73.03-18.62Q73.91-17.71 74.36-16.45Q74.80-15.18 74.80-13.59L74.80-13.59L74.80 0L70.61 0L70.61-13.18Q70.61-15.31 69.72-16.32Q68.83-17.32 66.89-17.32L66.89-17.32Q65.94-17.32 65.12-17.16Q64.30-16.99 63.67-16.78L63.67-16.78Q62.95-16.54 62.32-16.23L62.32-16.23L62.32 0L58.14 0Z M82.60-23.34L82.60-23.34Q82.05-23.34 81.57-23.54Q81.09-23.73 80.73-24.06Q80.37-24.39 80.16-24.83Q79.94-25.27 79.94-25.78L79.94-25.78Q79.94-26.31 80.16-26.76Q80.37-27.21 80.73-27.54Q81.09-27.87 81.57-28.06Q82.05-28.24 82.60-28.24L82.60-28.24Q83.14-28.24 83.63-28.06Q84.12-27.87 84.48-27.54Q84.84-27.21 85.06-26.76Q85.27-26.31 85.27-25.78L85.27-25.78Q85.27-25.27 85.06-24.83Q84.84-24.39 84.48-24.06Q84.12-23.73 83.63-23.54Q83.14-23.34 82.60-23.34ZM80.35-3.36L80.35-19.96L84.41-19.96L84.41-3.28L85.57-2.46L85.57 0L84.45 0L84.41-0.04L84.41 0Q82.48 0 81.42-0.78Q80.35-1.56 80.35-3.36L80.35-3.36Z M89.45-0.90L89.45-0.90Q89.45-1.35 89.53-1.88L89.53-1.88Q89.59-2.32 89.72-2.90Q89.84-3.48 90.10-4.10L90.10-4.10Q90.96-3.77 91.89-3.52L91.89-3.52Q92.70-3.30 93.63-3.12Q94.57-2.93 95.49-2.93L95.49-2.93Q96.31-2.93 97.01-2.99Q97.71-3.05 98.23-3.31Q98.75-3.57 99.04-4.11Q99.34-4.65 99.34-5.61L99.34-5.61Q99.34-6.76 98.62-7.42Q97.91-8.09 96.15-8.42L96.15-8.42Q94.34-8.77 93.10-9.36Q91.86-9.94 91.08-10.71Q90.31-11.48 89.97-12.44Q89.63-13.40 89.63-14.49L89.63-14.49Q89.63-16.13 90.16-17.29Q90.68-18.44 91.69-19.15Q92.70-19.86 94.19-20.19Q95.68-20.51 97.62-20.51L97.62-20.51Q98.96-20.51 100.01-20.32Q101.05-20.14 101.76-19.92L101.76-19.92Q102.58-19.67 103.18-19.34L103.18-19.34Q103.13-18.91 102.97-18.40L102.97-18.40Q102.83-17.97 102.61-17.42Q102.38-16.88 102.01-16.31L102.01-16.31Q101.48-16.62 100.80-16.86L100.80-16.86Q100.21-17.07 99.39-17.24Q98.57-17.40 97.52-17.40L97.52-17.40Q96.70-17.40 96.01-17.32Q95.31-17.25 94.81-16.97Q94.32-16.70 94.04-16.14Q93.77-15.59 93.77-14.63L93.77-14.63Q93.77-14.16 93.90-13.78Q94.02-13.40 94.40-13.09Q94.79-12.77 95.48-12.51Q96.17-12.25 97.32-11.99L97.32-11.99Q99.12-11.60 100.32-11.09Q101.52-10.59 102.24-9.86Q102.95-9.14 103.25-8.17Q103.55-7.21 103.55-5.88L103.55-5.88Q103.55-4.45 103.11-3.30Q102.66-2.15 101.70-1.33Q100.74-0.51 99.24-0.06Q97.73 0.39 95.61 0.39L95.61 0.39Q94.24 0.39 93.12 0.20Q91.99 0 91.17-0.25L91.17-0.25Q90.21-0.53 89.45-0.90Z M107.07-9.79L107.07-9.79Q107.07-12.60 107.75-14.63Q108.44-16.66 109.67-17.97Q110.90-19.28 112.61-19.89Q114.32-20.51 116.37-20.51L116.37-20.51Q118.26-20.51 119.76-19.87Q121.25-19.24 122.29-18.09Q123.32-16.93 123.87-15.33Q124.41-13.73 124.41-11.80L124.41-11.80Q124.41-11.13 124.36-10.57Q124.30-10 124.22-9.59L124.22-9.59Q124.14-9.10 124.04-8.71L124.04-8.71L111.23-8.77Q111.25-7.03 111.60-5.89Q111.95-4.75 112.65-4.08Q113.34-3.42 114.39-3.15Q115.45-2.89 116.89-2.89L116.89-2.89Q118.13-2.89 119.10-3.05Q120.08-3.20 120.76-3.42L120.76-3.42Q121.54-3.65 122.17-3.96L122.17-3.96Q122.46-3.28 122.63-2.70Q122.79-2.11 122.87-1.68L122.87-1.68Q122.95-1.17 122.99-0.78L122.99-0.78Q122.34-0.45 121.43-0.20L121.43-0.20Q120.64 0.02 119.51 0.21Q118.38 0.39 116.89 0.39L116.89 0.39Q114.55 0.39 112.72-0.14Q110.90-0.66 109.64-1.87Q108.38-3.07 107.72-5.01Q107.07-6.95 107.07-9.79ZM111.29-11.62L120.23-11.62L120.23-12.29Q120.23-13.52 119.93-14.46Q119.63-15.41 119.10-16.05Q118.57-16.70 117.85-17.03Q117.13-17.36 116.29-17.36L116.29-17.36Q115.06-17.36 114.12-17.04Q113.18-16.72 112.55-16.03Q111.91-15.33 111.60-14.24Q111.29-13.14 111.29-11.62L111.29-11.62Z"/></g>
</svg>
</g></svg></svg>